<svg xmlns="http://www.w3.org/2000/svg" id="Logo" x="0" y="0" version="1.1" viewBox="0 0 141.73 141.73" xml:space="preserve" style="enable-background:new 0 0 141.73 141.73"><style type="text/css">.st0{fill:#00b0ff}.st1{fill:#0081cb}.st2{fill:#1c88cc}</style><polygon points="13.63 17.76 13.63 74.78 29.76 84.03 29.76 46.46 62.89 65.34 62.89 46.27" class="st0"/><polygon points="62.89 46.27 112.6 17.76 112.6 74.4 79.03 93.65 62.89 84.03 96.22 65.15 96.22 46.08 62.89 65.34" class="st1"/><polyline points="62.89 84.03 95.84 103.68 95.84 121.98 62.89 102.91 62.89 84.03" class="st0"/><polygon points="112.6 74.4 124.9 81.23 124.9 66.36 112.6 59.18" class="st0"/><polygon points="129.94 84.03 95.84 103.68 95.84 121.98 129.94 100.98" class="st1"/><polygon points="129.94 84.03 124.9 66.36 124.9 81.23 126.5 86.01" class="st2"/></svg>